<?xml version="1.0" standalone="no"?>
<!DOCTYPE svg PUBLIC "-//W3C//DTD SVG 20010904//EN"
 "http://www.w3.org/TR/2001/REC-SVG-20010904/DTD/svg10.dtd">
<svg version="1.0" xmlns="http://www.w3.org/2000/svg"
 width="1181.000000pt" height="1181.000000pt" viewBox="0 0 1181.000000 1181.000000"
 preserveAspectRatio="xMidYMid meet">
<metadata>
Created by potrace 1.11, written by Peter Selinger 2001-2013
</metadata>
<g transform="translate(0.000000,1181.000000) scale(0.100000,-0.100000)"
fill="#000000" stroke="none">
<path d="M5369 11556 c-2 -2 -58 -7 -124 -11 -66 -4 -131 -8 -145 -10 -14 -2
-47 -6 -75 -9 -27 -4 -70 -9 -95 -12 -52 -6 -273 -41 -310 -49 -82 -17 -96
-19 -104 -17 -5 2 3 -16 18 -40 60 -98 138 -267 151 -328 2 -8 11 -42 19 -75
14 -52 22 -98 31 -170 1 -11 3 -39 4 -62 1 -45 -4 -43 71 -28 26 5 59 10 120
19 328 46 402 51 745 51 160 0 328 -4 375 -8 99 -9 240 -25 290 -33 19 -3 51
-7 70 -10 40 -5 200 -34 270 -49 14 -3 35 -7 48 -10 13 -2 32 -7 42 -10 10 -3
28 -8 39 -10 143 -27 560 -163 726 -235 22 -10 74 -32 115 -50 80 -35 331
-161 415 -208 743 -422 1369 -1032 1799 -1752 47 -80 91 -154 98 -165 75 -126
242 -494 313 -690 49 -135 130 -396 141 -452 3 -18 9 -33 12 -33 3 0 54 16
114 35 59 19 125 38 145 41 21 3 44 7 51 9 12 4 86 11 199 19 33 2 159 -9 205
-19 31 -6 32 -17 -6 135 -140 568 -424 1199 -778 1729 -291 436 -678 868
-1073 1195 -103 86 -106 88 -155 126 -25 19 -49 38 -55 43 -5 4 -35 26 -65 48
-30 22 -62 46 -70 52 -29 23 -308 206 -355 233 -11 6 -60 35 -110 64 -135 79
-413 219 -562 284 -164 70 -447 177 -533 201 -8 3 -62 18 -120 35 -209 61
-541 138 -665 155 -16 2 -59 8 -95 14 -36 5 -90 13 -120 16 -30 3 -66 8 -80
10 -23 3 -85 9 -220 22 -71 7 -705 15 -711 9z"/>
<path d="M3244 11540 c-79 -15 -204 -62 -288 -110 -77 -44 -198 -151 -253
-225 -190 -252 -222 -614 -80 -900 178 -359 582 -548 973 -455 308 72 547 304
637 618 29 105 31 323 3 427 -83 306 -307 537 -606 625 -85 24 -298 36 -386
20z"/>
<path d="M1960 10182 c-74 -64 -207 -189 -295 -277 -139 -138 -195 -198 -344
-370 -147 -170 -391 -511 -512 -715 -24 -41 -48 -83 -54 -92 -71 -117 -212
-395 -285 -563 -115 -265 -250 -655 -285 -825 -2 -8 -4 -15 -5 -15 -1 0 -3 -7
-5 -15 -1 -8 -12 -54 -24 -102 -30 -127 -64 -300 -77 -391 -2 -15 -6 -39 -9
-55 -3 -15 -8 -45 -10 -67 -3 -22 -7 -53 -10 -70 -2 -16 -7 -57 -10 -90 -4
-33 -8 -70 -10 -83 -26 -165 -27 -942 0 -1103 2 -13 6 -51 9 -84 9 -89 24
-196 52 -365 5 -31 49 -240 59 -280 2 -8 8 -37 15 -64 128 -563 432 -1256 773
-1766 62 -92 169 -243 177 -250 4 -3 11 -12 16 -21 5 -9 23 -33 39 -54 60 -76
160 -200 165 -205 3 -3 34 -39 70 -80 161 -186 424 -444 605 -594 68 -57 81
-64 87 -49 4 10 21 54 38 98 61 156 155 299 287 436 l74 76 -78 68 c-91 78
-281 263 -368 356 -395 424 -735 959 -953 1499 -78 195 -190 544 -217 678 -2
9 -11 49 -20 87 -16 68 -38 185 -49 255 -3 19 -8 49 -11 65 -13 75 -15 94 -20
145 -3 30 -8 69 -10 85 -26 196 -27 870 -1 1025 3 14 7 52 11 85 3 33 15 114
25 180 17 103 29 165 56 295 38 184 140 520 219 720 90 230 246 549 348 714
183 296 386 575 541 745 145 158 284 298 406 408 30 27 73 66 95 86 l40 36
-53 47 c-121 107 -240 286 -312 468 -24 58 -43 106 -44 105 0 0 -62 -53 -136
-117z"/>
<path d="M5438 9735 c-2 -2 -39 -6 -83 -10 -44 -3 -91 -8 -105 -10 -14 -2 -50
-7 -80 -10 -30 -4 -64 -9 -75 -11 -11 -3 -36 -7 -55 -10 -19 -3 -66 -12 -105
-20 -38 -9 -82 -17 -97 -20 -14 -3 -75 -18 -135 -35 -59 -16 -115 -31 -123
-34 -122 -32 -390 -142 -580 -236 -476 -237 -882 -563 -1235 -990 -189 -228
-385 -547 -524 -852 -100 -219 -213 -585 -255 -822 -3 -16 -8 -41 -11 -55 -5
-26 -12 -75 -21 -150 -3 -25 -7 -56 -9 -70 -20 -113 -27 -557 -13 -735 43
-535 199 -1048 462 -1525 68 -123 220 -356 297 -454 119 -151 301 -356 317
-356 4 0 6 1055 5 2345 l-1 2346 2236 -4 c1231 -2 2257 -7 2282 -10 25 -4 69
-9 99 -13 316 -36 589 -153 758 -326 129 -130 199 -259 263 -479 16 -52 30
-109 33 -125 21 -123 27 -163 32 -194 13 -95 19 -235 19 -435 1 -459 -29 -683
-119 -902 -45 -109 -73 -158 -140 -249 -145 -195 -354 -332 -626 -409 -91 -26
-201 -47 -314 -60 -27 -4 -61 -9 -75 -13 -14 -3 -632 -7 -1375 -9 l-1350 -4 0
415 c0 228 3 417 7 421 3 4 525 8 1160 10 634 2 1171 6 1193 8 39 5 96 12 180
23 72 9 199 42 247 64 130 57 213 212 247 460 9 65 7 423 -2 490 -24 165 -64
272 -124 327 -69 64 -208 114 -408 148 -102 17 -365 20 -1750 20 l-1540 0 0
-2268 c0 -1507 -3 -2267 -10 -2267 -28 -2 244 -127 425 -197 180 -69 497 -156
682 -187 29 -5 165 -24 213 -31 162 -21 594 -28 750 -12 44 5 98 10 121 12 22
2 54 6 70 9 16 3 49 8 74 11 85 12 295 56 408 86 405 108 821 302 1172 547
289 202 630 524 812 769 24 32 45 60 49 63 13 12 171 242 195 285 6 11 37 65
69 120 114 195 235 470 308 700 34 107 74 252 82 294 3 19 8 37 10 41 2 3 7
29 11 56 3 27 10 58 14 69 4 11 8 25 8 30 1 15 14 107 18 130 2 11 7 47 10 80
3 33 7 71 10 85 21 134 21 595 -1 755 -2 17 -7 53 -10 80 -79 680 -359 1342
-801 1895 -123 153 -384 420 -520 531 -50 41 -107 87 -125 102 -61 50 -342
234 -449 295 -267 150 -552 268 -843 347 -138 37 -331 79 -423 90 -27 4 -56 8
-64 10 -8 3 -44 7 -80 11 -36 3 -78 8 -95 11 -35 5 -592 13 -597 8z"/>
<path d="M10838 6708 c-312 -41 -574 -244 -692 -534 -14 -34 -27 -72 -30 -85
-3 -13 -8 -35 -11 -49 -28 -119 -24 -297 8 -415 66 -237 238 -443 457 -548
123 -59 208 -79 351 -82 98 -3 146 1 214 16 321 72 575 323 656 649 21 84 18
318 -5 405 -22 83 -69 189 -118 265 -31 47 -147 174 -189 205 -110 82 -233
138 -360 164 -71 15 -207 19 -281 9z"/>
<path d="M10390 4577 c-6 -23 -15 -55 -21 -72 -5 -16 -9 -32 -9 -35 -1 -3 -19
-57 -41 -120 -22 -63 -41 -122 -44 -130 -2 -8 -26 -69 -53 -135 -182 -445
-389 -808 -671 -1175 -197 -257 -473 -548 -696 -735 -33 -27 -62 -52 -65 -55
-3 -4 -61 -50 -130 -104 -282 -219 -681 -460 -970 -586 -41 -18 -95 -41 -119
-52 -172 -77 -587 -216 -759 -253 -189 -41 -305 -65 -337 -69 -22 -3 -49 -7
-60 -9 -11 -3 -47 -8 -80 -12 -32 -4 -66 -8 -75 -10 -8 -1 -46 -6 -85 -9 -38
-4 -92 -9 -120 -12 -291 -30 -779 -14 -1110 36 -33 5 -78 12 -100 15 -22 4
-57 10 -77 15 l-38 8 -1 -54 c-1 -30 -2 -57 -3 -61 -1 -5 -5 -30 -10 -58 -8
-54 -40 -181 -58 -230 -22 -60 -92 -201 -124 -252 -32 -50 -32 -51 -11 -56 81
-20 370 -67 497 -81 248 -28 304 -31 630 -31 277 0 433 6 550 19 14 2 57 7 95
10 66 7 108 12 165 21 75 12 218 35 240 40 194 39 195 39 320 70 58 15 113 28
122 30 10 2 71 20 135 40 556 171 1023 390 1495 701 132 87 344 240 423 305
399 328 709 649 990 1024 101 135 295 417 295 430 0 2 15 28 34 57 163 257
366 690 491 1048 55 159 135 431 135 459 0 4 -24 4 -52 0 -56 -8 -312 -4 -338
5 -8 3 -26 7 -40 10 -66 12 -126 29 -214 60 l-96 35 -10 -42z"/>
<path d="M3328 1995 c-2 -1 -25 -5 -53 -8 -171 -18 -361 -108 -490 -234 -222
-215 -306 -506 -241 -831 16 -79 75 -204 141 -297 119 -168 339 -309 530 -340
78 -13 109 -16 178 -16 417 0 775 310 845 731 9 50 8 217 -1 272 -54 343 -332
632 -673 703 -64 13 -228 27 -236 20z"/>
</g>
</svg>
